<mxfile host="app.diagrams.net" agent="Mozilla/5.0 (Windows NT 10.0; Win64; x64) AppleWebKit/537.36 (KHTML, like Gecko) Chrome/138.0.0.0 Safari/537.36" version="28.0.4">
  <diagram name="Page-1" id="vJJ5bVGyb-JGNTKWOepl">
    <mxGraphModel dx="2040" dy="1305" grid="0" gridSize="10" guides="1" tooltips="1" connect="1" arrows="1" fold="1" page="0" pageScale="1" pageWidth="850" pageHeight="1100" math="0" shadow="0">
      <root>
        <mxCell id="0" />
        <mxCell id="1" parent="0" />
        <mxCell id="rSjfv2H7Na3FDd_ksO-H-32" style="edgeStyle=none;curved=1;rounded=0;orthogonalLoop=1;jettySize=auto;html=1;exitX=1;exitY=0.25;exitDx=0;exitDy=0;entryX=0;entryY=0.5;entryDx=0;entryDy=0;fontSize=12;startSize=8;endSize=8;" parent="1" source="rW-h3uAhMxB-FjwPkZ2K-5" target="rSjfv2H7Na3FDd_ksO-H-4" edge="1">
          <mxGeometry relative="1" as="geometry" />
        </mxCell>
        <mxCell id="rSjfv2H7Na3FDd_ksO-H-33" value="HTTP&lt;div&gt;JSON&lt;/div&gt;" style="edgeLabel;html=1;align=center;verticalAlign=middle;resizable=0;points=[];fontSize=12;" parent="rSjfv2H7Na3FDd_ksO-H-32" vertex="1" connectable="0">
          <mxGeometry x="-0.4526" y="1" relative="1" as="geometry">
            <mxPoint x="-5" as="offset" />
          </mxGeometry>
        </mxCell>
        <mxCell id="rW-h3uAhMxB-FjwPkZ2K-5" value="&lt;table border=&quot;1&quot; width=&quot;100%&quot; height=&quot;100%&quot; cellpadding=&quot;4&quot; style=&quot;width:100%;height:100%;border-collapse:collapse;&quot;&gt;&lt;tbody&gt;&lt;tr&gt;&lt;th align=&quot;center&quot;&gt;React Frontend&lt;/th&gt;&lt;/tr&gt;&lt;tr&gt;&lt;td&gt;&lt;ul&gt;&lt;li&gt;Welcome Page&lt;/li&gt;&lt;li&gt;Login Page&lt;/li&gt;&lt;li&gt;Register Page&lt;/li&gt;&lt;li&gt;Home Page&lt;/li&gt;&lt;/ul&gt;&lt;/td&gt;&lt;/tr&gt;&lt;tr&gt;&lt;td&gt;&lt;div&gt;&lt;ul&gt;&lt;li&gt;Book List&lt;/li&gt;&lt;li&gt;Login Form&lt;/li&gt;&lt;li&gt;Admin Panel&lt;/li&gt;&lt;li&gt;Borrow Button&lt;/li&gt;&lt;/ul&gt;&lt;/div&gt;&lt;/td&gt;&lt;/tr&gt;&lt;/tbody&gt;&lt;/table&gt;" style="text;html=1;whiteSpace=wrap;strokeColor=#d6b656;fillColor=#fff2cc;overflow=fill;gradientColor=#ffd966;" parent="1" vertex="1">
          <mxGeometry x="-37" y="-23" width="201" height="304" as="geometry" />
        </mxCell>
        <mxCell id="rSjfv2H7Na3FDd_ksO-H-1" value="&lt;b&gt;Pages&lt;/b&gt;" style="text;strokeColor=none;fillColor=none;html=1;align=center;verticalAlign=middle;whiteSpace=wrap;rounded=0;fontSize=16;" parent="1" vertex="1">
          <mxGeometry x="14" y="16" width="60" height="30" as="geometry" />
        </mxCell>
        <mxCell id="rSjfv2H7Na3FDd_ksO-H-2" value="Components" style="text;strokeColor=none;fillColor=none;html=1;align=center;verticalAlign=middle;whiteSpace=wrap;rounded=0;fontSize=16;fontStyle=1" parent="1" vertex="1">
          <mxGeometry x="24" y="145" width="60" height="30" as="geometry" />
        </mxCell>
        <mxCell id="rSjfv2H7Na3FDd_ksO-H-50" style="edgeStyle=none;curved=1;rounded=0;orthogonalLoop=1;jettySize=auto;html=1;exitX=0.5;exitY=1;exitDx=0;exitDy=0;fontSize=12;startSize=8;endSize=8;entryX=0.5;entryY=0;entryDx=0;entryDy=0;" parent="1" source="rSjfv2H7Na3FDd_ksO-H-3" target="rSjfv2H7Na3FDd_ksO-H-45" edge="1">
          <mxGeometry relative="1" as="geometry">
            <mxPoint x="316.17647058823536" y="335.17652085248164" as="targetPoint" />
          </mxGeometry>
        </mxCell>
        <mxCell id="rSjfv2H7Na3FDd_ksO-H-3" value="Flask Backend" style="swimlane;whiteSpace=wrap;html=1;fillColor=#dae8fc;strokeColor=#6c8ebf;gradientColor=#7ea6e0;" parent="1" vertex="1">
          <mxGeometry x="205" y="-23" width="222" height="306" as="geometry" />
        </mxCell>
        <mxCell id="rSjfv2H7Na3FDd_ksO-H-10" style="edgeStyle=none;curved=1;rounded=0;orthogonalLoop=1;jettySize=auto;html=1;exitX=0;exitY=1;exitDx=0;exitDy=0;entryX=0.5;entryY=0;entryDx=0;entryDy=0;fontSize=12;startSize=8;endSize=8;" parent="rSjfv2H7Na3FDd_ksO-H-3" source="rSjfv2H7Na3FDd_ksO-H-4" target="rSjfv2H7Na3FDd_ksO-H-7" edge="1">
          <mxGeometry relative="1" as="geometry" />
        </mxCell>
        <mxCell id="rSjfv2H7Na3FDd_ksO-H-11" style="edgeStyle=none;curved=1;rounded=0;orthogonalLoop=1;jettySize=auto;html=1;exitX=1;exitY=1;exitDx=0;exitDy=0;entryX=0.5;entryY=0;entryDx=0;entryDy=0;fontSize=12;startSize=8;endSize=8;" parent="rSjfv2H7Na3FDd_ksO-H-3" source="rSjfv2H7Na3FDd_ksO-H-4" target="rSjfv2H7Na3FDd_ksO-H-6" edge="1">
          <mxGeometry relative="1" as="geometry" />
        </mxCell>
        <mxCell id="rSjfv2H7Na3FDd_ksO-H-4" value="&lt;b&gt;Rest API EndPoints&lt;/b&gt;&lt;div&gt;app.py&lt;/div&gt;" style="rounded=0;whiteSpace=wrap;html=1;fillColor=#d5e8d4;strokeColor=#82b366;glass=1;" parent="rSjfv2H7Na3FDd_ksO-H-3" vertex="1">
          <mxGeometry x="61" y="46" width="110" height="56" as="geometry" />
        </mxCell>
        <mxCell id="rSjfv2H7Na3FDd_ksO-H-6" value="&lt;b&gt;User&lt;/b&gt;&lt;div&gt;service.py&lt;/div&gt;" style="rounded=0;whiteSpace=wrap;html=1;fillColor=#d5e8d4;strokeColor=#82b366;glass=1;" parent="rSjfv2H7Na3FDd_ksO-H-3" vertex="1">
          <mxGeometry x="138" y="139" width="67" height="56" as="geometry" />
        </mxCell>
        <mxCell id="rSjfv2H7Na3FDd_ksO-H-7" value="&lt;b&gt;Book&lt;/b&gt;&lt;div&gt;service.py&lt;/div&gt;" style="rounded=0;whiteSpace=wrap;html=1;fillColor=#d5e8d4;strokeColor=#82b366;glass=1;" parent="rSjfv2H7Na3FDd_ksO-H-3" vertex="1">
          <mxGeometry x="27" y="139" width="67" height="56" as="geometry" />
        </mxCell>
        <mxCell id="rSjfv2H7Na3FDd_ksO-H-8" value="loan&lt;div&gt;service.py&lt;/div&gt;" style="rounded=0;whiteSpace=wrap;html=1;fillColor=#d5e8d4;strokeColor=#82b366;glass=1;" parent="rSjfv2H7Na3FDd_ksO-H-3" vertex="1">
          <mxGeometry x="82.5" y="226" width="67" height="56" as="geometry" />
        </mxCell>
        <mxCell id="rSjfv2H7Na3FDd_ksO-H-12" style="edgeStyle=none;curved=1;rounded=0;orthogonalLoop=1;jettySize=auto;html=1;exitX=0.5;exitY=1;exitDx=0;exitDy=0;entryX=0.5;entryY=0;entryDx=0;entryDy=0;fontSize=12;startSize=8;endSize=8;" parent="rSjfv2H7Na3FDd_ksO-H-3" source="rSjfv2H7Na3FDd_ksO-H-4" target="rSjfv2H7Na3FDd_ksO-H-8" edge="1">
          <mxGeometry relative="1" as="geometry" />
        </mxCell>
        <mxCell id="rSjfv2H7Na3FDd_ksO-H-30" style="edgeStyle=none;curved=1;rounded=0;orthogonalLoop=1;jettySize=auto;html=1;exitX=0;exitY=0.25;exitDx=0;exitDy=0;entryX=1;entryY=0.5;entryDx=0;entryDy=0;fontSize=12;startSize=8;endSize=8;" parent="1" source="rSjfv2H7Na3FDd_ksO-H-13" target="rSjfv2H7Na3FDd_ksO-H-4" edge="1">
          <mxGeometry relative="1" as="geometry" />
        </mxCell>
        <mxCell id="rSjfv2H7Na3FDd_ksO-H-31" value="HTTP/&lt;div&gt;JSON&lt;/div&gt;" style="edgeLabel;html=1;align=center;verticalAlign=middle;resizable=0;points=[];fontSize=12;" parent="rSjfv2H7Na3FDd_ksO-H-30" vertex="1" connectable="0">
          <mxGeometry x="-0.3101" y="-1" relative="1" as="geometry">
            <mxPoint as="offset" />
          </mxGeometry>
        </mxCell>
        <mxCell id="rSjfv2H7Na3FDd_ksO-H-13" value="MongoDB Atlas" style="swimlane;whiteSpace=wrap;html=1;fillColor=#f8cecc;strokeColor=#b85450;gradientColor=#ea6b66;" parent="1" vertex="1">
          <mxGeometry x="459" y="-25" width="230" height="308" as="geometry" />
        </mxCell>
        <mxCell id="rSjfv2H7Na3FDd_ksO-H-19" style="edgeStyle=none;curved=1;rounded=0;orthogonalLoop=1;jettySize=auto;html=1;exitX=0.5;exitY=1;exitDx=0;exitDy=0;exitPerimeter=0;fontSize=12;startSize=8;endSize=8;" parent="rSjfv2H7Na3FDd_ksO-H-13" source="rSjfv2H7Na3FDd_ksO-H-14" target="rSjfv2H7Na3FDd_ksO-H-16" edge="1">
          <mxGeometry relative="1" as="geometry">
            <Array as="points">
              <mxPoint x="115" y="147" />
            </Array>
          </mxGeometry>
        </mxCell>
        <mxCell id="rSjfv2H7Na3FDd_ksO-H-14" value="Database" style="shape=cylinder3;whiteSpace=wrap;html=1;boundedLbl=1;backgroundOutline=1;size=15;fillColor=#dae8fc;strokeColor=#6c8ebf;shadow=1;" parent="rSjfv2H7Na3FDd_ksO-H-13" vertex="1">
          <mxGeometry x="85" y="45" width="60" height="80" as="geometry" />
        </mxCell>
        <mxCell id="rSjfv2H7Na3FDd_ksO-H-15" value="Books&amp;nbsp;" style="text;html=1;align=center;verticalAlign=middle;whiteSpace=wrap;rounded=0;" parent="rSjfv2H7Na3FDd_ksO-H-13" vertex="1">
          <mxGeometry x="15" y="169" width="60" height="30" as="geometry" />
        </mxCell>
        <mxCell id="rSjfv2H7Na3FDd_ksO-H-16" value="Users" style="text;html=1;align=center;verticalAlign=middle;whiteSpace=wrap;rounded=0;" parent="rSjfv2H7Na3FDd_ksO-H-13" vertex="1">
          <mxGeometry x="85" y="167" width="60" height="30" as="geometry" />
        </mxCell>
        <mxCell id="rSjfv2H7Na3FDd_ksO-H-17" value="loans" style="text;html=1;align=center;verticalAlign=middle;whiteSpace=wrap;rounded=0;" parent="rSjfv2H7Na3FDd_ksO-H-13" vertex="1">
          <mxGeometry x="154" y="169" width="60" height="30" as="geometry" />
        </mxCell>
        <mxCell id="rSjfv2H7Na3FDd_ksO-H-26" value="User" style="text;html=1;align=center;verticalAlign=middle;whiteSpace=wrap;rounded=0;" parent="rSjfv2H7Na3FDd_ksO-H-13" vertex="1">
          <mxGeometry x="25" y="213" width="60" height="30" as="geometry" />
        </mxCell>
        <mxCell id="rSjfv2H7Na3FDd_ksO-H-27" value="fines" style="text;html=1;align=center;verticalAlign=middle;whiteSpace=wrap;rounded=0;" parent="rSjfv2H7Na3FDd_ksO-H-13" vertex="1">
          <mxGeometry x="150" y="211.5" width="58" height="33" as="geometry" />
        </mxCell>
        <mxCell id="rSjfv2H7Na3FDd_ksO-H-28" value="" style="endArrow=classic;html=1;rounded=0;fontSize=12;startSize=8;endSize=8;curved=1;exitX=1;exitY=0.5;exitDx=0;exitDy=0;entryX=0;entryY=0.5;entryDx=0;entryDy=0;" parent="rSjfv2H7Na3FDd_ksO-H-13" source="rSjfv2H7Na3FDd_ksO-H-26" target="rSjfv2H7Na3FDd_ksO-H-27" edge="1">
          <mxGeometry width="50" height="50" relative="1" as="geometry">
            <mxPoint x="89" y="200" as="sourcePoint" />
            <mxPoint x="139" y="150" as="targetPoint" />
          </mxGeometry>
        </mxCell>
        <mxCell id="rSjfv2H7Na3FDd_ksO-H-29" value="loan_history" style="text;html=1;align=center;verticalAlign=middle;whiteSpace=wrap;rounded=0;" parent="rSjfv2H7Na3FDd_ksO-H-13" vertex="1">
          <mxGeometry x="150" y="273" width="60" height="30" as="geometry" />
        </mxCell>
        <mxCell id="VG6UWsZcRLQvZ0x-wm1v-1" value="Books" style="text;html=1;align=center;verticalAlign=middle;whiteSpace=wrap;rounded=0;" parent="rSjfv2H7Na3FDd_ksO-H-13" vertex="1">
          <mxGeometry x="34" y="243" width="47" height="30" as="geometry" />
        </mxCell>
        <mxCell id="VG6UWsZcRLQvZ0x-wm1v-2" value="Feedback &amp;amp; Details" style="text;html=1;align=center;verticalAlign=middle;whiteSpace=wrap;rounded=0;" parent="rSjfv2H7Na3FDd_ksO-H-13" vertex="1">
          <mxGeometry x="154" y="240" width="58" height="33" as="geometry" />
        </mxCell>
        <mxCell id="VG6UWsZcRLQvZ0x-wm1v-5" value="loans" style="text;html=1;align=center;verticalAlign=middle;whiteSpace=wrap;rounded=0;" parent="rSjfv2H7Na3FDd_ksO-H-13" vertex="1">
          <mxGeometry x="31" y="271.5" width="58" height="33" as="geometry" />
        </mxCell>
        <mxCell id="VG6UWsZcRLQvZ0x-wm1v-6" value="" style="endArrow=classic;html=1;rounded=0;exitX=1;exitY=0.5;exitDx=0;exitDy=0;entryX=0;entryY=0.5;entryDx=0;entryDy=0;" parent="rSjfv2H7Na3FDd_ksO-H-13" source="VG6UWsZcRLQvZ0x-wm1v-5" target="rSjfv2H7Na3FDd_ksO-H-29" edge="1">
          <mxGeometry width="50" height="50" relative="1" as="geometry">
            <mxPoint x="180" y="358" as="sourcePoint" />
            <mxPoint x="248" y="358" as="targetPoint" />
          </mxGeometry>
        </mxCell>
        <mxCell id="rSjfv2H7Na3FDd_ksO-H-22" value="" style="endArrow=none;html=1;rounded=0;fontSize=12;startSize=8;endSize=8;curved=1;" parent="1" edge="1">
          <mxGeometry width="50" height="50" relative="1" as="geometry">
            <mxPoint x="503" y="117" as="sourcePoint" />
            <mxPoint x="574" y="117" as="targetPoint" />
          </mxGeometry>
        </mxCell>
        <mxCell id="rSjfv2H7Na3FDd_ksO-H-23" value="" style="endArrow=none;html=1;rounded=0;fontSize=12;startSize=8;endSize=8;curved=1;" parent="1" edge="1">
          <mxGeometry width="50" height="50" relative="1" as="geometry">
            <mxPoint x="575" y="116" as="sourcePoint" />
            <mxPoint x="645" y="116" as="targetPoint" />
          </mxGeometry>
        </mxCell>
        <mxCell id="rSjfv2H7Na3FDd_ksO-H-24" value="" style="endArrow=classic;html=1;rounded=0;fontSize=12;startSize=8;endSize=8;curved=1;entryX=0.5;entryY=0;entryDx=0;entryDy=0;" parent="1" target="rSjfv2H7Na3FDd_ksO-H-15" edge="1">
          <mxGeometry width="50" height="50" relative="1" as="geometry">
            <mxPoint x="504" y="118" as="sourcePoint" />
            <mxPoint x="459" y="155" as="targetPoint" />
          </mxGeometry>
        </mxCell>
        <mxCell id="rSjfv2H7Na3FDd_ksO-H-25" value="" style="endArrow=classic;html=1;rounded=0;fontSize=12;startSize=8;endSize=8;curved=1;entryX=0.5;entryY=0;entryDx=0;entryDy=0;" parent="1" target="rSjfv2H7Na3FDd_ksO-H-17" edge="1">
          <mxGeometry width="50" height="50" relative="1" as="geometry">
            <mxPoint x="643" y="116" as="sourcePoint" />
            <mxPoint x="598" y="125" as="targetPoint" />
          </mxGeometry>
        </mxCell>
        <mxCell id="rSjfv2H7Na3FDd_ksO-H-41" value="&lt;b&gt;&lt;font style=&quot;font-size: 14px;&quot;&gt;User&lt;/font&gt;&lt;/b&gt;" style="swimlane;fontStyle=0;childLayout=stackLayout;horizontal=1;startSize=30;horizontalStack=0;resizeParent=1;resizeParentMax=0;resizeLast=0;collapsible=1;marginBottom=0;whiteSpace=wrap;html=1;fillColor=#d5e8d4;strokeColor=#82b366;gradientColor=#97d077;" parent="1" vertex="1">
          <mxGeometry x="-68" y="380" width="215" height="112" as="geometry" />
        </mxCell>
        <mxCell id="rSjfv2H7Na3FDd_ksO-H-42" value="Book catalog&lt;div&gt;(Search by &#39;author/Title)&lt;/div&gt;" style="text;strokeColor=none;fillColor=none;align=left;verticalAlign=middle;spacingLeft=4;spacingRight=4;overflow=hidden;points=[[0,0.5],[1,0.5]];portConstraint=eastwest;rotatable=0;whiteSpace=wrap;html=1;" parent="rSjfv2H7Na3FDd_ksO-H-41" vertex="1">
          <mxGeometry y="30" width="215" height="45" as="geometry" />
        </mxCell>
        <mxCell id="rSjfv2H7Na3FDd_ksO-H-43" value="Profile&lt;div&gt;(view fine/Payment,loan history)&lt;/div&gt;" style="text;strokeColor=none;fillColor=none;align=left;verticalAlign=middle;spacingLeft=4;spacingRight=4;overflow=hidden;points=[[0,0.5],[1,0.5]];portConstraint=eastwest;rotatable=0;whiteSpace=wrap;html=1;" parent="rSjfv2H7Na3FDd_ksO-H-41" vertex="1">
          <mxGeometry y="75" width="215" height="37" as="geometry" />
        </mxCell>
        <mxCell id="rSjfv2H7Na3FDd_ksO-H-45" value="&lt;b&gt;&lt;font style=&quot;font-size: 14px;&quot;&gt;Librarian&lt;/font&gt;&lt;/b&gt;" style="swimlane;fontStyle=0;childLayout=stackLayout;horizontal=1;startSize=30;horizontalStack=0;resizeParent=1;resizeParentMax=0;resizeLast=0;collapsible=1;marginBottom=0;whiteSpace=wrap;html=1;fillColor=#e6d0de;strokeColor=#996185;gradientColor=#d5739d;" parent="1" vertex="1">
          <mxGeometry x="237" y="376" width="144" height="157" as="geometry">
            <mxRectangle x="391" y="352" width="95" height="30" as="alternateBounds" />
          </mxGeometry>
        </mxCell>
        <mxCell id="rSjfv2H7Na3FDd_ksO-H-46" value="User Management" style="text;strokeColor=none;fillColor=none;align=left;verticalAlign=middle;spacingLeft=4;spacingRight=4;overflow=hidden;points=[[0,0.5],[1,0.5]];portConstraint=eastwest;rotatable=0;whiteSpace=wrap;html=1;" parent="rSjfv2H7Na3FDd_ksO-H-45" vertex="1">
          <mxGeometry y="30" width="144" height="31" as="geometry" />
        </mxCell>
        <mxCell id="rSjfv2H7Na3FDd_ksO-H-47" value="Book Management&lt;div&gt;(add/edit/delete)&lt;/div&gt;&lt;div&gt;&lt;br&gt;&lt;/div&gt;&lt;div&gt;Current Borrowers&lt;/div&gt;&lt;div&gt;&lt;br&gt;&lt;/div&gt;" style="text;strokeColor=none;fillColor=none;align=left;verticalAlign=middle;spacingLeft=4;spacingRight=4;overflow=hidden;points=[[0,0.5],[1,0.5]];portConstraint=eastwest;rotatable=0;whiteSpace=wrap;html=1;" parent="rSjfv2H7Na3FDd_ksO-H-45" vertex="1">
          <mxGeometry y="61" width="144" height="96" as="geometry" />
        </mxCell>
        <mxCell id="rSjfv2H7Na3FDd_ksO-H-51" style="edgeStyle=none;curved=1;rounded=0;orthogonalLoop=1;jettySize=auto;html=1;exitX=0.5;exitY=1;exitDx=0;exitDy=0;entryX=0.46;entryY=0.007;entryDx=0;entryDy=0;entryPerimeter=0;fontSize=12;startSize=8;endSize=8;" parent="1" source="rSjfv2H7Na3FDd_ksO-H-3" target="rSjfv2H7Na3FDd_ksO-H-41" edge="1">
          <mxGeometry relative="1" as="geometry" />
        </mxCell>
        <mxCell id="VG6UWsZcRLQvZ0x-wm1v-4" value="" style="endArrow=classic;html=1;rounded=0;exitX=1;exitY=0.5;exitDx=0;exitDy=0;" parent="1" source="VG6UWsZcRLQvZ0x-wm1v-1" edge="1">
          <mxGeometry width="50" height="50" relative="1" as="geometry">
            <mxPoint x="265" y="248" as="sourcePoint" />
            <mxPoint x="608" y="233" as="targetPoint" />
          </mxGeometry>
        </mxCell>
        <mxCell id="Wb1rFGCK3czyP2KJ1G16-1" value="Test Cases" style="swimlane;whiteSpace=wrap;html=1;fillColor=#f5f5f5;strokeColor=#666666;gradientColor=#b3b3b3;" vertex="1" parent="1">
          <mxGeometry x="466" y="372" width="387" height="254" as="geometry" />
        </mxCell>
        <mxCell id="Wb1rFGCK3czyP2KJ1G16-2" style="edgeStyle=none;curved=1;rounded=0;orthogonalLoop=1;jettySize=auto;html=1;exitX=0.5;exitY=1;exitDx=0;exitDy=0;entryX=0.5;entryY=0;entryDx=0;entryDy=0;fontSize=12;startSize=8;endSize=8;" edge="1" parent="Wb1rFGCK3czyP2KJ1G16-1" source="Wb1rFGCK3czyP2KJ1G16-4" target="Wb1rFGCK3czyP2KJ1G16-6">
          <mxGeometry relative="1" as="geometry" />
        </mxCell>
        <mxCell id="Wb1rFGCK3czyP2KJ1G16-3" style="edgeStyle=none;curved=1;rounded=0;orthogonalLoop=1;jettySize=auto;html=1;exitX=0.5;exitY=1;exitDx=0;exitDy=0;entryX=0.5;entryY=0;entryDx=0;entryDy=0;fontSize=12;startSize=8;endSize=8;" edge="1" parent="Wb1rFGCK3czyP2KJ1G16-1" source="Wb1rFGCK3czyP2KJ1G16-4" target="Wb1rFGCK3czyP2KJ1G16-5">
          <mxGeometry relative="1" as="geometry" />
        </mxCell>
        <mxCell id="Wb1rFGCK3czyP2KJ1G16-4" value="&lt;b&gt;Using Pytest&lt;/b&gt;" style="rounded=0;whiteSpace=wrap;html=1;fillColor=#e6d0de;strokeColor=#996185;glass=1;gradientColor=#d5739d;" vertex="1" parent="Wb1rFGCK3czyP2KJ1G16-1">
          <mxGeometry x="153" y="37" width="110" height="56" as="geometry" />
        </mxCell>
        <mxCell id="Wb1rFGCK3czyP2KJ1G16-5" value="&lt;b&gt;Sytem folder:&lt;/b&gt;&lt;br&gt;&lt;div&gt;covers all system testcases&lt;/div&gt;" style="rounded=0;whiteSpace=wrap;html=1;fillColor=#d5e8d4;strokeColor=#82b366;glass=1;" vertex="1" parent="Wb1rFGCK3czyP2KJ1G16-1">
          <mxGeometry x="240" y="189" width="137" height="56" as="geometry" />
        </mxCell>
        <mxCell id="Wb1rFGCK3czyP2KJ1G16-6" value="&lt;b&gt;unit folder:&amp;nbsp;&lt;/b&gt;&lt;br&gt;covers all unit testcases" style="rounded=0;whiteSpace=wrap;html=1;fillColor=#d5e8d4;strokeColor=#82b366;glass=1;" vertex="1" parent="Wb1rFGCK3czyP2KJ1G16-1">
          <mxGeometry x="24" y="189" width="159" height="56" as="geometry" />
        </mxCell>
        <mxCell id="Wb1rFGCK3czyP2KJ1G16-9" style="edgeStyle=none;curved=1;rounded=0;orthogonalLoop=1;jettySize=auto;html=1;exitX=0.5;exitY=1;exitDx=0;exitDy=0;entryX=0.5;entryY=0;entryDx=0;entryDy=0;fontSize=12;startSize=8;endSize=8;" edge="1" parent="1" source="rSjfv2H7Na3FDd_ksO-H-3" target="Wb1rFGCK3czyP2KJ1G16-1">
          <mxGeometry relative="1" as="geometry">
            <mxPoint x="655" y="296" as="sourcePoint" />
            <mxPoint x="370" y="394" as="targetPoint" />
          </mxGeometry>
        </mxCell>
      </root>
    </mxGraphModel>
  </diagram>
</mxfile>
